<?xml version="1.0" standalone="no"?>
<!DOCTYPE svg PUBLIC "-//W3C//DTD SVG 20010904//EN"
 "http://www.w3.org/TR/2001/REC-SVG-20010904/DTD/svg10.dtd">
<svg version="1.0" xmlns="http://www.w3.org/2000/svg"
 width="548.000000pt" height="546.000000pt" viewBox="0 0 548.000000 546.000000"
 preserveAspectRatio="xMidYMid meet">
<metadata>
Created by potrace 1.16, written by Peter Selinger 2001-2019
</metadata>
<g transform="translate(0.000000,546.000000) scale(0.100000,-0.100000)"
fill="#000000" stroke="none">
<path d="M30 5010 l0 -420 420 0 420 0 0 420 0 420 -420 0 -420 0 0 -420z
m720 0 l0 -300 -300 0 -300 0 0 300 0 300 300 0 300 0 0 -300z"/>
<path d="M270 5010 l0 -180 180 0 180 0 0 180 0 180 -180 0 -180 0 0 -180z"/>
<path d="M1590 5370 l0 -60 60 0 60 0 0 -60 0 -60 -60 0 -60 0 0 -60 0 -60
-60 0 -60 0 0 120 0 120 -240 0 -240 0 0 -180 0 -180 60 0 60 0 0 -60 0 -60
-60 0 -60 0 0 -120 0 -120 60 0 60 0 0 120 0 120 60 0 60 0 0 -180 0 -180 -60
0 -60 0 0 -60 0 -60 120 0 120 0 0 60 0 60 60 0 60 0 0 -60 0 -60 120 0 120 0
0 60 0 60 -120 0 -120 0 0 60 0 60 60 0 60 0 0 120 0 120 60 0 60 0 0 -120 0
-120 60 0 60 0 0 -60 0 -60 60 0 60 0 0 -60 0 -60 60 0 60 0 0 -120 0 -120
-60 0 -60 0 0 60 0 60 -60 0 -60 0 0 -60 0 -60 -120 0 -120 0 0 -120 0 -120
-60 0 -60 0 0 -60 0 -60 -60 0 -60 0 0 120 0 120 60 0 60 0 0 60 0 60 -60 0
-60 0 0 60 0 60 -60 0 -60 0 0 -120 0 -120 -240 0 -240 0 0 -60 0 -60 -60 0
-60 0 0 120 0 120 240 0 240 0 0 60 0 60 -60 0 -60 0 0 60 0 60 -60 0 -60 0 0
60 0 60 -60 0 -60 0 0 -60 0 -60 60 0 60 0 0 -60 0 -60 -120 0 -120 0 0 -60 0
-60 -60 0 -60 0 0 -120 0 -120 60 0 60 0 0 -60 0 -60 60 0 60 0 0 -60 0 -60
60 0 60 0 0 60 0 60 60 0 60 0 0 60 0 60 60 0 60 0 0 -120 0 -120 60 0 60 0 0
60 0 60 60 0 60 0 0 -120 0 -120 -120 0 -120 0 0 -60 0 -60 -60 0 -60 0 0
-120 0 -120 60 0 60 0 0 -60 0 -60 -300 0 -300 0 0 -180 0 -180 -60 0 -60 0 0
60 0 60 -60 0 -60 0 0 60 0 60 60 0 60 0 0 120 0 120 120 0 120 0 0 60 0 60
-120 0 -120 0 0 60 0 60 60 0 60 0 0 60 0 60 60 0 60 0 0 60 0 60 -60 0 -60 0
0 60 0 60 -60 0 -60 0 0 60 0 60 -180 0 -180 0 0 -180 0 -180 120 0 120 0 0
-120 0 -120 60 0 60 0 0 -60 0 -60 -180 0 -180 0 0 -180 0 -180 60 0 60 0 0
-240 0 -240 60 0 60 0 0 -60 0 -60 60 0 60 0 0 120 0 120 60 0 60 0 0 -120 0
-120 60 0 60 0 0 60 0 60 60 0 60 0 0 -60 0 -60 60 0 60 0 0 -60 0 -60 -120 0
-120 0 0 -60 0 -60 -120 0 -120 0 0 -120 0 -120 60 0 60 0 0 -60 0 -60 120 0
120 0 0 -60 0 -60 60 0 60 0 0 -60 0 -60 -60 0 -60 0 0 -60 0 -60 120 0 120 0
0 120 0 120 -60 0 -60 0 0 60 0 60 180 0 180 0 0 -60 0 -60 60 0 60 0 0 -60 0
-60 -60 0 -60 0 0 -60 0 -60 -60 0 -60 0 0 -180 0 -180 180 0 180 0 0 -60 0
-60 -180 0 -180 0 0 -60 0 -60 300 0 300 0 0 -60 0 -60 -120 0 -120 0 0 -60 0
-60 120 0 120 0 0 60 0 60 120 0 120 0 0 60 0 60 60 0 60 0 0 60 0 60 -120 0
-120 0 0 60 0 60 -60 0 -60 0 0 60 0 60 60 0 60 0 0 60 0 60 60 0 60 0 0 -120
0 -120 120 0 120 0 0 -60 0 -60 60 0 60 0 0 -180 0 -180 -60 0 -60 0 0 -60 0
-60 -60 0 -60 0 0 60 0 60 -120 0 -120 0 0 -60 0 -60 120 0 120 0 0 -60 0 -60
-60 0 -60 0 0 -60 0 -60 120 0 120 0 0 60 0 60 60 0 60 0 0 120 0 120 60 0 60
0 0 -60 0 -60 60 0 60 0 0 -120 0 -120 120 0 120 0 0 60 0 60 60 0 60 0 0 60
0 60 -60 0 -60 0 0 -60 0 -60 -60 0 -60 0 0 60 0 60 -60 0 -60 0 0 120 0 120
60 0 60 0 0 -60 0 -60 180 0 180 0 0 -120 0 -120 420 0 420 0 0 -60 0 -60 60
0 60 0 0 60 0 60 60 0 60 0 0 -60 0 -60 60 0 60 0 0 120 0 120 -300 0 -300 0
0 180 0 180 180 0 180 0 0 60 0 60 -180 0 -180 0 0 60 0 60 60 0 60 0 0 60 0
60 60 0 60 0 0 -60 0 -60 120 0 120 0 0 -60 0 -60 60 0 60 0 0 -60 0 -60 -60
0 -60 0 0 -60 0 -60 60 0 60 0 0 -60 0 -60 60 0 60 0 0 -120 0 -120 120 0 120
0 0 60 0 60 -60 0 -60 0 0 60 0 60 120 0 120 0 0 -180 0 -180 120 0 120 0 0
60 0 60 -60 0 -60 0 0 60 0 60 60 0 60 0 0 180 0 180 60 0 60 0 0 60 0 60 -60
0 -60 0 0 60 0 60 60 0 60 0 0 60 0 60 60 0 60 0 0 -120 0 -120 60 0 60 0 0
-120 0 -120 -60 0 -60 0 0 -60 0 -60 -60 0 -60 0 0 -120 0 -120 60 0 60 0 0
-60 0 -60 60 0 60 0 0 60 0 60 -60 0 -60 0 0 120 0 120 60 0 60 0 0 -60 0 -60
60 0 60 0 0 300 0 300 -60 0 -60 0 0 60 0 60 -60 0 -60 0 0 60 0 60 -120 0
-120 0 0 60 0 60 120 0 120 0 0 180 0 180 120 0 120 0 0 60 0 60 -60 0 -60 0
0 60 0 60 60 0 60 0 0 120 0 120 -60 0 -60 0 0 120 0 120 -60 0 -60 0 0 60 0
60 120 0 120 0 0 60 0 60 -60 0 -60 0 0 60 0 60 60 0 60 0 0 240 0 240 -60 0
-60 0 0 60 0 60 60 0 60 0 0 60 0 60 -60 0 -60 0 0 60 0 60 60 0 60 0 0 60 0
60 -60 0 -60 0 0 -60 0 -60 -60 0 -60 0 0 60 0 60 -60 0 -60 0 0 60 0 60 120
0 120 0 0 60 0 60 -120 0 -120 0 0 -60 0 -60 -180 0 -180 0 0 60 0 60 60 0 60
0 0 60 0 60 60 0 60 0 0 60 0 60 120 0 120 0 0 -60 0 -60 120 0 120 0 0 60 0
60 -60 0 -60 0 0 60 0 60 -60 0 -60 0 0 60 0 60 60 0 60 0 0 60 0 60 -180 0
-180 0 0 -60 0 -60 60 0 60 0 0 -60 0 -60 -60 0 -60 0 0 -60 0 -60 -60 0 -60
0 0 -60 0 -60 -60 0 -60 0 0 -60 0 -60 -60 0 -60 0 0 120 0 120 60 0 60 0 0
60 0 60 60 0 60 0 0 120 0 120 -60 0 -60 0 0 -120 0 -120 -60 0 -60 0 0 120 0
120 -60 0 -60 0 0 120 0 120 -60 0 -60 0 0 -60 0 -60 -60 0 -60 0 0 60 0 60
-60 0 -60 0 0 -60 0 -60 -60 0 -60 0 0 120 0 120 240 0 240 0 0 120 0 120 -60
0 -60 0 0 120 0 120 60 0 60 0 0 60 0 60 -60 0 -60 0 0 -60 0 -60 -60 0 -60 0
0 -180 0 -180 -60 0 -60 0 0 60 0 60 -60 0 -60 0 0 60 0 60 60 0 60 0 0 60 0
60 -60 0 -60 0 0 60 0 60 -180 0 -180 0 0 -60 0 -60 60 0 60 0 0 -60 0 -60
-60 0 -60 0 0 -60 0 -60 -60 0 -60 0 0 -60 0 -60 -120 0 -120 0 0 -60 0 -60
-120 0 -120 0 0 60 0 60 60 0 60 0 0 60 0 60 60 0 60 0 0 60 0 60 60 0 60 0 0
120 0 120 -60 0 -60 0 0 -60 0 -60 -180 0 -180 0 0 60 0 60 -60 0 -60 0 0 -60
0 -60 60 0 60 0 0 -120 0 -120 60 0 60 0 0 -60 0 -60 -120 0 -120 0 0 60 0 60
-60 0 -60 0 0 180 0 180 -240 0 -240 0 0 -60 0 -60 -60 0 -60 0 0 -120 0 -120
-120 0 -120 0 0 180 0 180 -120 0 -120 0 0 -60z m-240 -240 l0 -60 60 0 60 0
0 -60 0 -60 -180 0 -180 0 0 120 0 120 120 0 120 0 0 -60z m2520 -120 l0 -180
-120 0 -120 0 0 -240 0 -240 -60 0 -60 0 0 -60 0 -60 120 0 120 0 0 -120 0
-120 120 0 120 0 0 -60 0 -60 60 0 60 0 0 -60 0 -60 60 0 60 0 0 120 0 120 60
0 60 0 0 60 0 60 60 0 60 0 0 60 0 60 -60 0 -60 0 0 60 0 60 60 0 60 0 0 -60
0 -60 60 0 60 0 0 -60 0 -60 -60 0 -60 0 0 -180 0 -180 60 0 60 0 0 -60 0 -60
60 0 60 0 0 -60 0 -60 120 0 120 0 0 -60 0 -60 60 0 60 0 0 60 0 60 60 0 60 0
0 -60 0 -60 60 0 60 0 0 -60 0 -60 -120 0 -120 0 0 -60 0 -60 60 0 60 0 0
-120 0 -120 60 0 60 0 0 -120 0 -120 -60 0 -60 0 0 -120 0 -120 -60 0 -60 0 0
-120 0 -120 60 0 60 0 0 -60 0 -60 -60 0 -60 0 0 -120 0 -120 60 0 60 0 0
-120 0 -120 -60 0 -60 0 0 -120 0 -120 -60 0 -60 0 0 120 0 120 -60 0 -60 0 0
120 0 120 -60 0 -60 0 0 60 0 60 60 0 60 0 0 60 0 60 60 0 60 0 0 120 0 120
-60 0 -60 0 0 -60 0 -60 -60 0 -60 0 0 -60 0 -60 -60 0 -60 0 0 -180 0 -180
60 0 60 0 0 -120 0 -120 60 0 60 0 0 -60 0 -60 -60 0 -60 0 0 -60 0 -60 60 0
60 0 0 -60 0 -60 -120 0 -120 0 0 60 0 60 -60 0 -60 0 0 -60 0 -60 -300 0
-300 0 0 120 0 120 -240 0 -240 0 0 60 0 60 120 0 120 0 0 120 0 120 -120 0
-120 0 0 -60 0 -60 -120 0 -120 0 0 -60 0 -60 60 0 60 0 0 -60 0 -60 -60 0
-60 0 0 -60 0 -60 60 0 60 0 0 -60 0 -60 60 0 60 0 0 -60 0 -60 60 0 60 0 0
120 0 120 120 0 120 0 0 -60 0 -60 -60 0 -60 0 0 -60 0 -60 -60 0 -60 0 0 -60
0 -60 -60 0 -60 0 0 60 0 60 -180 0 -180 0 0 60 0 60 60 0 60 0 0 60 0 60 -60
0 -60 0 0 60 0 60 60 0 60 0 0 60 0 60 -120 0 -120 0 0 60 0 60 -120 0 -120 0
0 -120 0 -120 120 0 120 0 0 -120 0 -120 -60 0 -60 0 0 60 0 60 -120 0 -120 0
0 -60 0 -60 -60 0 -60 0 0 -120 0 -120 -60 0 -60 0 0 60 0 60 -120 0 -120 0 0
60 0 60 -60 0 -60 0 0 60 0 60 120 0 120 0 0 -60 0 -60 120 0 120 0 0 60 0 60
-60 0 -60 0 0 120 0 120 60 0 60 0 0 60 0 60 -120 0 -120 0 0 -120 0 -120
-120 0 -120 0 0 60 0 60 -60 0 -60 0 0 -120 0 -120 -60 0 -60 0 0 -120 0 -120
-60 0 -60 0 0 -60 0 -60 -60 0 -60 0 0 60 0 60 -120 0 -120 0 0 120 0 120 180
0 180 0 0 60 0 60 60 0 60 0 0 60 0 60 -120 0 -120 0 0 60 0 60 -120 0 -120 0
0 60 0 60 120 0 120 0 0 60 0 60 60 0 60 0 0 60 0 60 -60 0 -60 0 0 60 0 60
-180 0 -180 0 0 120 0 120 60 0 60 0 0 60 0 60 120 0 120 0 0 60 0 60 -180 0
-180 0 0 240 0 240 60 0 60 0 0 60 0 60 -60 0 -60 0 0 60 0 60 60 0 60 0 0
-60 0 -60 120 0 120 0 0 60 0 60 -60 0 -60 0 0 60 0 60 120 0 120 0 0 -180 0
-180 -120 0 -120 0 0 -60 0 -60 120 0 120 0 0 -60 0 -60 180 0 180 0 0 -60 0
-60 -60 0 -60 0 0 -60 0 -60 180 0 180 0 0 -60 0 -60 -60 0 -60 0 0 -60 0 -60
60 0 60 0 0 -60 0 -60 60 0 60 0 0 -60 0 -60 -60 0 -60 0 0 -120 0 -120 60 0
60 0 0 60 0 60 60 0 60 0 0 -60 0 -60 60 0 60 0 0 120 0 120 -60 0 -60 0 0 60
0 60 60 0 60 0 0 120 0 120 180 0 180 0 0 -60 0 -60 60 0 60 0 0 60 0 60 60 0
60 0 0 60 0 60 -60 0 -60 0 0 60 0 60 60 0 60 0 0 -60 0 -60 60 0 60 0 0 240
0 240 -60 0 -60 0 0 60 0 60 -60 0 -60 0 0 -60 0 -60 -120 0 -120 0 0 60 0 60
-60 0 -60 0 0 60 0 60 120 0 120 0 0 180 0 180 60 0 60 0 0 60 0 60 180 0 180
0 0 60 0 60 120 0 120 0 0 60 0 60 -60 0 -60 0 0 60 0 60 -60 0 -60 0 0 -60 0
-60 -120 0 -120 0 0 -60 0 -60 -60 0 -60 0 0 60 0 60 60 0 60 0 0 60 0 60 -60
0 -60 0 0 60 0 60 -60 0 -60 0 0 60 0 60 120 0 120 0 0 60 0 60 -60 0 -60 0 0
120 0 120 60 0 60 0 0 -120 0 -120 60 0 60 0 0 180 0 180 180 0 180 0 0 60 0
60 60 0 60 0 0 120 0 120 60 0 60 0 0 -180z m-2040 -60 l0 -120 -60 0 -60 0 0
60 0 60 -60 0 -60 0 0 60 0 60 120 0 120 0 0 -120z m480 60 l0 -60 -60 0 -60
0 0 -60 0 -60 60 0 60 0 0 -60 0 -60 60 0 60 0 0 -120 0 -120 -60 0 -60 0 0
-180 0 -180 60 0 60 0 0 -60 0 -60 -60 0 -60 0 0 -120 0 -120 -120 0 -120 0 0
-120 0 -120 120 0 120 0 0 60 0 60 60 0 60 0 0 120 0 120 120 0 120 0 0 -60 0
-60 60 0 60 0 0 60 0 60 60 0 60 0 0 -60 0 -60 -60 0 -60 0 0 -60 0 -60 -60 0
-60 0 0 -60 0 -60 60 0 60 0 0 -60 0 -60 -60 0 -60 0 0 60 0 60 -60 0 -60 0 0
-60 0 -60 -180 0 -180 0 0 -60 0 -60 60 0 60 0 0 -60 0 -60 -60 0 -60 0 0 60
0 60 -60 0 -60 0 0 120 0 120 -60 0 -60 0 0 -180 0 -180 60 0 60 0 0 -60 0
-60 -60 0 -60 0 0 -60 0 -60 -120 0 -120 0 0 120 0 120 60 0 60 0 0 60 0 60
-60 0 -60 0 0 120 0 120 60 0 60 0 0 60 0 60 60 0 60 0 0 60 0 60 -120 0 -120
0 0 -60 0 -60 -60 0 -60 0 0 -60 0 -60 -60 0 -60 0 0 120 0 120 120 0 120 0 0
60 0 60 60 0 60 0 0 60 0 60 120 0 120 0 0 60 0 60 60 0 60 0 0 120 0 120 -60
0 -60 0 0 60 0 60 -60 0 -60 0 0 60 0 60 -60 0 -60 0 0 60 0 60 60 0 60 0 0
-60 0 -60 60 0 60 0 0 240 0 240 120 0 120 0 0 -60z m600 -360 l0 -180 -180 0
-180 0 0 180 0 180 180 0 180 0 0 -180z m960 0 l0 -60 60 0 60 0 0 -60 0 -60
60 0 60 0 0 60 0 60 60 0 60 0 0 -240 0 -240 -120 0 -120 0 0 60 0 60 -60 0
-60 0 0 60 0 60 60 0 60 0 0 60 0 60 -120 0 -120 0 0 120 0 120 60 0 60 0 0
-60z m-1080 -360 l0 -60 -120 0 -120 0 0 60 0 60 120 0 120 0 0 -60z m-480
-1320 l0 -60 -60 0 -60 0 0 -120 0 -120 -60 0 -60 0 0 120 0 120 60 0 60 0 0
60 0 60 60 0 60 0 0 -60z m-1320 -240 l0 -180 -180 0 -180 0 0 180 0 180 180
0 180 0 0 -180z m1920 0 l0 -180 -180 0 -180 0 0 180 0 180 180 0 180 0 0
-180z m-1920 -720 l0 -60 -60 0 -60 0 0 -60 0 -60 120 0 120 0 0 60 0 60 120
0 120 0 0 -60 0 -60 -120 0 -120 0 0 -60 0 -60 -120 0 -120 0 0 -60 0 -60 -60
0 -60 0 0 60 0 60 60 0 60 0 0 60 0 60 -60 0 -60 0 0 60 0 60 60 0 60 0 0 60
0 60 60 0 60 0 0 -60z m1920 -1200 l0 -180 -180 0 -180 0 0 180 0 180 180 0
180 0 0 -180z m1440 120 l0 -60 -120 0 -120 0 0 60 0 60 120 0 120 0 0 -60z
m480 -120 l0 -180 -180 0 -180 0 0 180 0 180 180 0 180 0 0 -180z m-1560 0 l0
-60 -60 0 -60 0 0 -60 0 -60 180 0 180 0 0 -60 0 -60 -60 0 -60 0 0 -60 0 -60
-60 0 -60 0 0 60 0 60 -120 0 -120 0 0 180 0 180 120 0 120 0 0 -60z m1080
-240 l0 -60 60 0 60 0 0 -60 0 -60 -60 0 -60 0 0 60 0 60 -60 0 -60 0 0 60 0
60 60 0 60 0 0 -60z"/>
<path d="M3150 4230 l0 -120 60 0 60 0 0 120 0 120 -60 0 -60 0 0 -120z"/>
<path d="M3870 3810 l0 -60 -60 0 -60 0 0 -60 0 -60 -60 0 -60 0 0 60 0 60
-120 0 -120 0 0 -60 0 -60 60 0 60 0 0 -60 0 -60 -60 0 -60 0 0 -60 0 -60 -60
0 -60 0 0 -60 0 -60 -60 0 -60 0 0 60 0 60 -60 0 -60 0 0 -60 0 -60 -60 0 -60
0 0 -60 0 -60 60 0 60 0 0 60 0 60 60 0 60 0 0 -60 0 -60 60 0 60 0 0 60 0 60
120 0 120 0 0 120 0 120 60 0 60 0 0 -120 0 -120 60 0 60 0 0 120 0 120 60 0
60 0 0 -60 0 -60 60 0 60 0 0 -60 0 -60 -60 0 -60 0 0 -60 0 -60 -180 0 -180
0 0 -60 0 -60 60 0 60 0 0 -60 0 -60 -120 0 -120 0 0 -120 0 -120 60 0 60 0 0
-60 0 -60 60 0 60 0 0 -60 0 -60 -60 0 -60 0 0 -120 0 -120 -60 0 -60 0 0 -60
0 -60 -120 0 -120 0 0 -60 0 -60 -60 0 -60 0 0 -60 0 -60 60 0 60 0 0 -60 0
-60 -120 0 -120 0 0 -60 0 -60 120 0 120 0 0 60 0 60 120 0 120 0 0 60 0 60
60 0 60 0 0 60 0 60 60 0 60 0 0 -60 0 -60 120 0 120 0 0 -60 0 -60 -60 0 -60
0 0 -60 0 -60 240 0 240 0 0 -60 0 -60 -180 0 -180 0 0 -60 0 -60 120 0 120 0
0 -60 0 -60 180 0 180 0 0 60 0 60 120 0 120 0 0 60 0 60 -60 0 -60 0 0 120 0
120 -60 0 -60 0 0 60 0 60 -60 0 -60 0 0 60 0 60 -60 0 -60 0 0 60 0 60 120 0
120 0 0 60 0 60 120 0 120 0 0 60 0 60 60 0 60 0 0 60 0 60 120 0 120 0 0 60
0 60 -60 0 -60 0 0 240 0 240 60 0 60 0 0 60 0 60 -60 0 -60 0 0 60 0 60 -120
0 -120 0 0 60 0 60 -60 0 -60 0 0 -60 0 -60 -60 0 -60 0 0 60 0 60 -120 0
-120 0 0 120 0 120 -60 0 -60 0 0 60 0 60 -60 0 -60 0 0 60 0 60 -60 0 -60 0
0 -60z m600 -600 l0 -60 -60 0 -60 0 0 -120 0 -120 -60 0 -60 0 0 -120 0 -120
60 0 60 0 0 -60 0 -60 -60 0 -60 0 0 -60 0 -60 -60 0 -60 0 0 60 0 60 -60 0
-60 0 0 -60 0 -60 -120 0 -120 0 0 -60 0 -60 60 0 60 0 0 -180 0 -180 -60 0
-60 0 0 180 0 180 -60 0 -60 0 0 60 0 60 60 0 60 0 0 60 0 60 -60 0 -60 0 0
120 0 120 240 0 240 0 0 60 0 60 60 0 60 0 0 120 0 120 60 0 60 0 0 60 0 60
60 0 60 0 0 -60z m240 0 l0 -60 60 0 60 0 0 -60 0 -60 -120 0 -120 0 0 120 0
120 60 0 60 0 0 -60z m-720 -240 l0 -60 -120 0 -120 0 0 60 0 60 120 0 120 0
0 -60z m840 -240 l0 -180 -180 0 -180 0 0 180 0 180 180 0 180 0 0 -180z
m-120 -360 l0 -60 -180 0 -180 0 0 -60 0 -60 -60 0 -60 0 0 -60 0 -60 -60 0
-60 0 0 -60 0 -60 60 0 60 0 0 -60 0 -60 60 0 60 0 0 -60 0 -60 60 0 60 0 0
-180 0 -180 -120 0 -120 0 0 60 0 60 60 0 60 0 0 60 0 60 -60 0 -60 0 0 120 0
120 -120 0 -120 0 0 120 0 120 60 0 60 0 0 60 0 60 -60 0 -60 0 0 60 0 60 60
0 60 0 0 -60 0 -60 60 0 60 0 0 60 0 60 60 0 60 0 0 60 0 60 180 0 180 0 0
-60z m-1200 -360 l0 -60 -60 0 -60 0 0 -60 0 -60 -120 0 -120 0 0 60 0 60 120
0 120 0 0 60 0 60 60 0 60 0 0 -60z"/>
<path d="M1230 2730 l0 -60 180 0 180 0 0 -120 0 -120 -60 0 -60 0 0 -60 0
-60 60 0 60 0 0 -180 0 -180 60 0 60 0 0 -120 0 -120 -60 0 -60 0 0 -60 0 -60
180 0 180 0 0 -60 0 -60 60 0 60 0 0 120 0 120 -60 0 -60 0 0 60 0 60 60 0 60
0 0 60 0 60 -60 0 -60 0 0 60 0 60 60 0 60 0 0 120 0 120 -60 0 -60 0 0 -120
0 -120 -60 0 -60 0 0 120 0 120 -120 0 -120 0 0 60 0 60 60 0 60 0 0 120 0
120 -60 0 -60 0 0 60 0 60 -180 0 -180 0 0 -60z"/>
<path d="M3270 2430 l0 -120 -60 0 -60 0 0 -60 0 -60 60 0 60 0 0 60 0 60 60
0 60 0 0 120 0 120 -60 0 -60 0 0 -120z"/>
<path d="M2670 2190 l0 -120 180 0 180 0 0 60 0 60 -60 0 -60 0 0 60 0 60
-120 0 -120 0 0 -120z"/>
<path d="M2550 1710 l0 -120 60 0 60 0 0 60 0 60 60 0 60 0 0 60 0 60 -120 0
-120 0 0 -120z"/>
<path d="M2190 4590 l0 -120 60 0 60 0 0 120 0 120 -60 0 -60 0 0 -120z"/>
<path d="M4590 5010 l0 -420 420 0 420 0 0 420 0 420 -420 0 -420 0 0 -420z
m720 0 l0 -300 -300 0 -300 0 0 300 0 300 300 0 300 0 0 -300z"/>
<path d="M4830 5010 l0 -180 180 0 180 0 0 180 0 180 -180 0 -180 0 0 -180z"/>
<path d="M150 4350 l0 -120 -60 0 -60 0 0 -60 0 -60 120 0 120 0 0 120 0 120
60 0 60 0 0 -60 0 -60 60 0 60 0 0 60 0 60 -60 0 -60 0 0 60 0 60 -120 0 -120
0 0 -120z"/>
<path d="M30 1770 l0 -180 60 0 60 0 0 -120 0 -120 60 0 60 0 0 60 0 60 60 0
60 0 0 60 0 60 -120 0 -120 0 0 60 0 60 60 0 60 0 0 60 0 60 -60 0 -60 0 0 60
0 60 -60 0 -60 0 0 -180z"/>
<path d="M510 1290 l0 -60 -180 0 -180 0 0 -60 0 -60 -60 0 -60 0 0 -60 0 -60
60 0 60 0 0 60 0 60 120 0 120 0 0 -60 0 -60 120 0 120 0 0 180 0 180 -60 0
-60 0 0 -60z"/>
<path d="M30 450 l0 -420 420 0 420 0 0 420 0 420 -420 0 -420 0 0 -420z m720
0 l0 -300 -300 0 -300 0 0 300 0 300 300 0 300 0 0 -300z"/>
<path d="M270 450 l0 -180 180 0 180 0 0 180 0 180 -180 0 -180 0 0 -180z"/>
<path d="M1230 270 l0 -240 60 0 60 0 0 240 0 240 -60 0 -60 0 0 -240z"/>
<path d="M990 270 l0 -120 60 0 60 0 0 120 0 120 -60 0 -60 0 0 -120z"/>
</g>
</svg>
