<?xml version="1.0" standalone="no"?>
<!DOCTYPE svg PUBLIC "-//W3C//DTD SVG 20010904//EN"
 "http://www.w3.org/TR/2001/REC-SVG-20010904/DTD/svg10.dtd">
<svg version="1.0" xmlns="http://www.w3.org/2000/svg"
 width="660.000000pt" height="654.000000pt" viewBox="0 0 660.000000 654.000000"
 preserveAspectRatio="xMidYMid meet">
<metadata>
Created by potrace 1.16, written by Peter Selinger 2001-2019
</metadata>
<g transform="translate(0.000000,654.000000) scale(0.100000,-0.100000)"
fill="#000000" stroke="none">
<path d="M330 5830 l0 -420 420 0 420 0 0 420 0 420 -420 0 -420 0 0 -420z
m720 0 l0 -300 -300 0 -300 0 0 300 0 300 300 0 300 0 0 -300z"/>
<path d="M570 5830 l0 -180 180 0 180 0 0 180 0 180 -180 0 -180 0 0 -180z"/>
<path d="M1650 6190 l0 -60 60 0 60 0 0 -60 0 -60 -60 0 -60 0 0 -60 0 -60
-60 0 -60 0 0 120 0 120 -120 0 -120 0 0 -420 0 -420 60 0 60 0 0 300 0 300
60 0 60 0 0 -300 0 -300 60 0 60 0 0 -60 0 -60 -240 0 -240 0 0 60 0 60 -180
0 -180 0 0 -60 0 -60 -120 0 -120 0 0 -240 0 -240 -60 0 -60 0 0 60 0 60 -60
0 -60 0 0 -120 0 -120 120 0 120 0 0 -60 0 -60 60 0 60 0 0 -60 0 -60 60 0 60
0 0 -120 0 -120 -60 0 -60 0 0 60 0 60 -120 0 -120 0 0 120 0 120 -60 0 -60 0
0 -120 0 -120 60 0 60 0 0 -60 0 -60 -60 0 -60 0 0 -60 0 -60 60 0 60 0 0 -60
0 -60 120 0 120 0 0 60 0 60 60 0 60 0 0 -120 0 -120 180 0 180 0 0 -60 0 -60
-180 0 -180 0 0 -60 0 -60 -180 0 -180 0 0 60 0 60 -60 0 -60 0 0 -60 0 -60
60 0 60 0 0 -60 0 -60 -60 0 -60 0 0 -60 0 -60 60 0 60 0 0 -60 0 -60 -60 0
-60 0 0 -60 0 -60 60 0 60 0 0 -60 0 -60 -60 0 -60 0 0 -180 0 -180 180 0 180
0 0 -60 0 -60 -60 0 -60 0 0 -60 0 -60 -60 0 -60 0 0 -60 0 -60 120 0 120 0 0
-60 0 -60 60 0 60 0 0 60 0 60 60 0 60 0 0 -60 0 -60 180 0 180 0 0 -60 0 -60
-180 0 -180 0 0 -60 0 -60 120 0 120 0 0 -60 0 -60 -120 0 -120 0 0 -60 0 -60
120 0 120 0 0 -60 0 -60 -60 0 -60 0 0 -60 0 -60 180 0 180 0 0 60 0 60 180 0
180 0 0 -120 0 -120 -60 0 -60 0 0 60 0 60 -60 0 -60 0 0 -60 0 -60 -60 0 -60
0 0 -60 0 -60 -60 0 -60 0 0 -120 0 -120 60 0 60 0 0 -60 0 -60 180 0 180 0 0
-60 0 -60 -180 0 -180 0 0 -60 0 -60 -60 0 -60 0 0 -60 0 -60 60 0 60 0 0 60
0 60 60 0 60 0 0 -60 0 -60 120 0 120 0 0 120 0 120 60 0 60 0 0 -120 0 -120
180 0 180 0 0 120 0 120 -180 0 -180 0 0 60 0 60 60 0 60 0 0 60 0 60 60 0 60
0 0 -60 0 -60 60 0 60 0 0 180 0 180 -60 0 -60 0 0 -60 0 -60 -60 0 -60 0 0
-60 0 -60 -60 0 -60 0 0 -60 0 -60 -60 0 -60 0 0 60 0 60 -60 0 -60 0 0 120 0
120 60 0 60 0 0 -60 0 -60 60 0 60 0 0 60 0 60 60 0 60 0 0 60 0 60 120 0 120
0 0 120 0 120 60 0 60 0 0 -120 0 -120 60 0 60 0 0 -60 0 -60 -60 0 -60 0 0
-240 0 -240 60 0 60 0 0 60 0 60 60 0 60 0 0 60 0 60 60 0 60 0 0 60 0 60 60
0 60 0 0 60 0 60 60 0 60 0 0 -120 0 -120 120 0 120 0 0 -60 0 -60 120 0 120
0 0 60 0 60 60 0 60 0 0 -60 0 -60 60 0 60 0 0 -120 0 -120 120 0 120 0 0 -60
0 -60 180 0 180 0 0 60 0 60 60 0 60 0 0 -60 0 -60 180 0 180 0 0 60 0 60 60
0 60 0 0 -60 0 -60 120 0 120 0 0 60 0 60 -120 0 -120 0 0 60 0 60 120 0 120
0 0 60 0 60 60 0 60 0 0 60 0 60 60 0 60 0 0 -60 0 -60 60 0 60 0 0 60 0 60
120 0 120 0 0 -60 0 -60 -60 0 -60 0 0 -60 0 -60 60 0 60 0 0 -60 0 -60 -60 0
-60 0 0 -60 0 -60 300 0 300 0 0 120 0 120 -60 0 -60 0 0 -60 0 -60 -60 0 -60
0 0 180 0 180 60 0 60 0 0 180 0 180 60 0 60 0 0 60 0 60 -60 0 -60 0 0 -60 0
-60 -60 0 -60 0 0 60 0 60 -60 0 -60 0 0 -60 0 -60 -60 0 -60 0 0 240 0 240
60 0 60 0 0 -120 0 -120 60 0 60 0 0 120 0 120 60 0 60 0 0 -120 0 -120 60 0
60 0 0 300 0 300 -60 0 -60 0 0 -60 0 -60 -60 0 -60 0 0 -60 0 -60 -60 0 -60
0 0 120 0 120 60 0 60 0 0 60 0 60 -60 0 -60 0 0 -60 0 -60 -60 0 -60 0 0 120
0 120 60 0 60 0 0 60 0 60 180 0 180 0 0 60 0 60 -180 0 -180 0 0 60 0 60 120
0 120 0 0 60 0 60 -60 0 -60 0 0 60 0 60 60 0 60 0 0 60 0 60 60 0 60 0 0 60
0 60 -60 0 -60 0 0 120 0 120 60 0 60 0 0 60 0 60 -60 0 -60 0 0 -60 0 -60
-60 0 -60 0 0 -120 0 -120 -60 0 -60 0 0 180 0 180 60 0 60 0 0 60 0 60 -60 0
-60 0 0 60 0 60 -180 0 -180 0 0 60 0 60 60 0 60 0 0 60 0 60 60 0 60 0 0 -60
0 -60 120 0 120 0 0 -60 0 -60 120 0 120 0 0 180 0 180 -60 0 -60 0 0 -60 0
-60 -120 0 -120 0 0 60 0 60 60 0 60 0 0 60 0 60 120 0 120 0 0 420 0 420
-120 0 -120 0 0 -60 0 -60 -60 0 -60 0 0 -120 0 -120 -60 0 -60 0 0 -60 0 -60
-60 0 -60 0 0 -60 0 -60 60 0 60 0 0 -180 0 -180 -60 0 -60 0 0 120 0 120 -60
0 -60 0 0 -60 0 -60 -60 0 -60 0 0 -60 0 -60 -60 0 -60 0 0 -60 0 -60 -120 0
-120 0 0 60 0 60 -60 0 -60 0 0 60 0 60 60 0 60 0 0 60 0 60 60 0 60 0 0 60 0
60 60 0 60 0 0 120 0 120 -120 0 -120 0 0 60 0 60 -60 0 -60 0 0 -120 0 -120
60 0 60 0 0 -60 0 -60 -120 0 -120 0 0 60 0 60 -180 0 -180 0 0 120 0 120 120
0 120 0 0 -60 0 -60 60 0 60 0 0 60 0 60 -60 0 -60 0 0 60 0 60 -120 0 -120 0
0 60 0 60 -60 0 -60 0 0 60 0 60 60 0 60 0 0 60 0 60 60 0 60 0 0 240 0 240
60 0 60 0 0 60 0 60 120 0 120 0 0 60 0 60 60 0 60 0 0 -120 0 -120 60 0 60 0
0 60 0 60 60 0 60 0 0 180 0 180 -60 0 -60 0 0 -60 0 -60 -120 0 -120 0 0 60
0 60 -60 0 -60 0 0 -60 0 -60 -60 0 -60 0 0 60 0 60 -240 0 -240 0 0 -60 0
-60 -60 0 -60 0 0 60 0 60 -60 0 -60 0 0 -120 0 -120 120 0 120 0 0 -60 0 -60
-240 0 -240 0 0 -60 0 -60 60 0 60 0 0 -60 0 -60 -120 0 -120 0 0 60 0 60
-300 0 -300 0 0 180 0 180 -60 0 -60 0 0 60 0 60 -180 0 -180 0 0 -60 0 -60
120 0 120 0 0 -120 0 -120 -60 0 -60 0 0 60 0 60 -120 0 -120 0 0 -120 0 -120
60 0 60 0 0 -60 0 -60 -120 0 -120 0 0 60 0 60 -60 0 -60 0 0 60 0 60 60 0 60
0 0 180 0 180 -120 0 -120 0 0 -240 0 -240 -60 0 -60 0 0 -120 0 -120 -60 0
-60 0 0 -120 0 -120 -60 0 -60 0 0 180 0 180 60 0 60 0 0 60 0 60 -60 0 -60 0
0 60 0 60 120 0 120 0 0 120 0 120 -60 0 -60 0 0 60 0 60 -60 0 -60 0 0 -60z
m2640 -120 l0 -60 120 0 120 0 0 60 0 60 60 0 60 0 0 -120 0 -120 -60 0 -60 0
0 -60 0 -60 -120 0 -120 0 0 -60 0 -60 60 0 60 0 0 -180 0 -180 -60 0 -60 0 0
-60 0 -60 -60 0 -60 0 0 -180 0 -180 60 0 60 0 0 -60 0 -60 -60 0 -60 0 0 60
0 60 -60 0 -60 0 0 60 0 60 -120 0 -120 0 0 -60 0 -60 -60 0 -60 0 0 -180 0
-180 120 0 120 0 0 60 0 60 240 0 240 0 0 -60 0 -60 -60 0 -60 0 0 -60 0 -60
60 0 60 0 0 -60 0 -60 60 0 60 0 0 60 0 60 60 0 60 0 0 60 0 60 60 0 60 0 0
-180 0 -180 60 0 60 0 0 -60 0 -60 -60 0 -60 0 0 -60 0 -60 120 0 120 0 0
-120 0 -120 -180 0 -180 0 0 60 0 60 -60 0 -60 0 0 -120 0 -120 60 0 60 0 0
-120 0 -120 120 0 120 0 0 60 0 60 60 0 60 0 0 60 0 60 60 0 60 0 0 -60 0 -60
-60 0 -60 0 0 -60 0 -60 60 0 60 0 0 -180 0 -180 180 0 180 0 0 60 0 60 240 0
240 0 0 60 0 60 60 0 60 0 0 -60 0 -60 -60 0 -60 0 0 -60 0 -60 -120 0 -120 0
0 -180 0 -180 -60 0 -60 0 0 -60 0 -60 60 0 60 0 0 -60 0 -60 -60 0 -60 0 0
-60 0 -60 -60 0 -60 0 0 -60 0 -60 60 0 60 0 0 -60 0 -60 -120 0 -120 0 0 120
0 120 -60 0 -60 0 0 60 0 60 -60 0 -60 0 0 -60 0 -60 -120 0 -120 0 0 -60 0
-60 120 0 120 0 0 -120 0 -120 60 0 60 0 0 -60 0 -60 -60 0 -60 0 0 60 0 60
-60 0 -60 0 0 60 0 60 -60 0 -60 0 0 -60 0 -60 -60 0 -60 0 0 120 0 120 -60 0
-60 0 0 -360 0 -360 60 0 60 0 0 60 0 60 60 0 60 0 0 -60 0 -60 60 0 60 0 0
120 0 120 60 0 60 0 0 -120 0 -120 -60 0 -60 0 0 -60 0 -60 60 0 60 0 0 -60 0
-60 -60 0 -60 0 0 60 0 60 -180 0 -180 0 0 60 0 60 -60 0 -60 0 0 180 0 180
-60 0 -60 0 0 -120 0 -120 -60 0 -60 0 0 -120 0 -120 60 0 60 0 0 -60 0 -60
120 0 120 0 0 -120 0 -120 60 0 60 0 0 120 0 120 60 0 60 0 0 -60 0 -60 120 0
120 0 0 -120 0 -120 -60 0 -60 0 0 60 0 60 -60 0 -60 0 0 -60 0 -60 -120 0
-120 0 0 -120 0 -120 -60 0 -60 0 0 60 0 60 -120 0 -120 0 0 -60 0 -60 -180 0
-180 0 0 60 0 60 -60 0 -60 0 0 60 0 60 -60 0 -60 0 0 60 0 60 -60 0 -60 0 0
60 0 60 120 0 120 0 0 60 0 60 60 0 60 0 0 -60 0 -60 60 0 60 0 0 60 0 60 60
0 60 0 0 60 0 60 -60 0 -60 0 0 60 0 60 -120 0 -120 0 0 -60 0 -60 -60 0 -60
0 0 -60 0 -60 -60 0 -60 0 0 60 0 60 60 0 60 0 0 60 0 60 -60 0 -60 0 0 120 0
120 60 0 60 0 0 -120 0 -120 60 0 60 0 0 60 0 60 120 0 120 0 0 -60 0 -60 60
0 60 0 0 60 0 60 60 0 60 0 0 120 0 120 -60 0 -60 0 0 -60 0 -60 -60 0 -60 0
0 120 0 120 120 0 120 0 0 -60 0 -60 60 0 60 0 0 60 0 60 60 0 60 0 0 60 0 60
-60 0 -60 0 0 60 0 60 -60 0 -60 0 0 -60 0 -60 -60 0 -60 0 0 120 0 120 -60 0
-60 0 0 -120 0 -120 -60 0 -60 0 0 60 0 60 -120 0 -120 0 0 180 0 180 60 0 60
0 0 -60 0 -60 60 0 60 0 0 180 0 180 -60 0 -60 0 0 -60 0 -60 -60 0 -60 0 0
60 0 60 -120 0 -120 0 0 60 0 60 60 0 60 0 0 60 0 60 -60 0 -60 0 0 60 0 60
60 0 60 0 0 60 0 60 60 0 60 0 0 -60 0 -60 -60 0 -60 0 0 -60 0 -60 120 0 120
0 0 60 0 60 60 0 60 0 0 60 0 60 -60 0 -60 0 0 60 0 60 60 0 60 0 0 120 0 120
-60 0 -60 0 0 -60 0 -60 -60 0 -60 0 0 60 0 60 -60 0 -60 0 0 60 0 60 60 0 60
0 0 120 0 120 -120 0 -120 0 0 -120 0 -120 -120 0 -120 0 0 60 0 60 -60 0 -60
0 0 120 0 120 -60 0 -60 0 0 -60 0 -60 -120 0 -120 0 0 -60 0 -60 120 0 120 0
0 -60 0 -60 -60 0 -60 0 0 -60 0 -60 60 0 60 0 0 -60 0 -60 -60 0 -60 0 0 -60
0 -60 60 0 60 0 0 -120 0 -120 -60 0 -60 0 0 -60 0 -60 -120 0 -120 0 0 -60 0
-60 60 0 60 0 0 -60 0 -60 60 0 60 0 0 60 0 60 120 0 120 0 0 60 0 60 60 0 60
0 0 60 0 60 60 0 60 0 0 -60 0 -60 -60 0 -60 0 0 -120 0 -120 -60 0 -60 0 0
-120 0 -120 -120 0 -120 0 0 -60 0 -60 60 0 60 0 0 -120 0 -120 60 0 60 0 0
-60 0 -60 -60 0 -60 0 0 -60 0 -60 240 0 240 0 0 -120 0 -120 -180 0 -180 0 0
-60 0 -60 -60 0 -60 0 0 -60 0 -60 -60 0 -60 0 0 -60 0 -60 -180 0 -180 0 0
60 0 60 180 0 180 0 0 60 0 60 60 0 60 0 0 60 0 60 -60 0 -60 0 0 180 0 180
-60 0 -60 0 0 -60 0 -60 -120 0 -120 0 0 -60 0 -60 60 0 60 0 0 -60 0 -60 60
0 60 0 0 -60 0 -60 -60 0 -60 0 0 60 0 60 -60 0 -60 0 0 -60 0 -60 -60 0 -60
0 0 60 0 60 -120 0 -120 0 0 60 0 60 -60 0 -60 0 0 -60 0 -60 -60 0 -60 0 0
60 0 60 -60 0 -60 0 0 -60 0 -60 -60 0 -60 0 0 60 0 60 -60 0 -60 0 0 -60 0
-60 -60 0 -60 0 0 -60 0 -60 -60 0 -60 0 0 60 0 60 -60 0 -60 0 0 60 0 60 60
0 60 0 0 120 0 120 60 0 60 0 0 120 0 120 -60 0 -60 0 0 60 0 60 -60 0 -60 0
0 -60 0 -60 -120 0 -120 0 0 60 0 60 -60 0 -60 0 0 -60 0 -60 -60 0 -60 0 0
120 0 120 60 0 60 0 0 60 0 60 60 0 60 0 0 60 0 60 -60 0 -60 0 0 60 0 60 60
0 60 0 0 60 0 60 -180 0 -180 0 0 -60 0 -60 -60 0 -60 0 0 60 0 60 60 0 60 0
0 180 0 180 -60 0 -60 0 0 60 0 60 60 0 60 0 0 -60 0 -60 60 0 60 0 0 60 0 60
60 0 60 0 0 -180 0 -180 60 0 60 0 0 -60 0 -60 60 0 60 0 0 60 0 60 60 0 60 0
0 -60 0 -60 60 0 60 0 0 -60 0 -60 60 0 60 0 0 60 0 60 120 0 120 0 0 -60 0
-60 -60 0 -60 0 0 -60 0 -60 60 0 60 0 0 -60 0 -60 60 0 60 0 0 120 0 120 240
0 240 0 0 -60 0 -60 -60 0 -60 0 0 -120 0 -120 -60 0 -60 0 0 -60 0 -60 60 0
60 0 0 -60 0 -60 60 0 60 0 0 180 0 180 180 0 180 0 0 120 0 120 -60 0 -60 0
0 -60 0 -60 -60 0 -60 0 0 120 0 120 -60 0 -60 0 0 60 0 60 120 0 120 0 0 -60
0 -60 60 0 60 0 0 120 0 120 60 0 60 0 0 120 0 120 60 0 60 0 0 60 0 60 -240
0 -240 0 0 -60 0 -60 60 0 60 0 0 -120 0 -120 -180 0 -180 0 0 -60 0 -60 -60
0 -60 0 0 -60 0 -60 -120 0 -120 0 0 180 0 180 120 0 120 0 0 60 0 60 60 0 60
0 0 180 0 180 -60 0 -60 0 0 -60 0 -60 -60 0 -60 0 0 -120 0 -120 -60 0 -60 0
0 120 0 120 -120 0 -120 0 0 -60 0 -60 -60 0 -60 0 0 60 0 60 60 0 60 0 0 60
0 60 60 0 60 0 0 60 0 60 -60 0 -60 0 0 60 0 60 -60 0 -60 0 0 -60 0 -60 -60
0 -60 0 0 -60 0 -60 -60 0 -60 0 0 60 0 60 -120 0 -120 0 0 60 0 60 -60 0 -60
0 0 60 0 60 60 0 60 0 0 60 0 60 120 0 120 0 0 60 0 60 -60 0 -60 0 0 60 0 60
-60 0 -60 0 0 -60 0 -60 -60 0 -60 0 0 60 0 60 -60 0 -60 0 0 120 0 120 60 0
60 0 0 60 0 60 -60 0 -60 0 0 60 0 60 60 0 60 0 0 120 0 120 60 0 60 0 0 -60
0 -60 60 0 60 0 0 60 0 60 60 0 60 0 0 -60 0 -60 -60 0 -60 0 0 -60 0 -60 120
0 120 0 0 60 0 60 60 0 60 0 0 -60 0 -60 120 0 120 0 0 60 0 60 120 0 120 0 0
60 0 60 60 0 60 0 0 -60 0 -60 60 0 60 0 0 60 0 60 60 0 60 0 0 120 0 120 -60
0 -60 0 0 -60 0 -60 -60 0 -60 0 0 60 0 60 -60 0 -60 0 0 60 0 60 60 0 60 0 0
120 0 120 60 0 60 0 0 -60 0 -60 60 0 60 0 0 -120 0 -120 60 0 60 0 0 60 0 60
60 0 60 0 0 60 0 60 60 0 60 0 0 60 0 60 -60 0 -60 0 0 60 0 60 60 0 60 0 0
-60 0 -60 60 0 60 0 0 60 0 60 60 0 60 0 0 -60 0 -60 60 0 60 0 0 -240 0 -240
-60 0 -60 0 0 -60 0 -60 360 0 360 0 0 -180 0 -180 60 0 60 0 0 120 0 120 60
0 60 0 0 60 0 60 -60 0 -60 0 0 60 0 60 -60 0 -60 0 0 120 0 120 60 0 60 0 0
-60 0 -60 60 0 60 0 0 120 0 120 120 0 120 0 0 60 0 60 120 0 120 0 0 120 0
120 -60 0 -60 0 0 60 0 60 60 0 60 0 0 -60z m-840 -600 l0 -180 -180 0 -180 0
0 180 0 180 180 0 180 0 0 -180z m2640 -720 l0 -60 -60 0 -60 0 0 -60 0 -60
60 0 60 0 0 -120 0 -120 -60 0 -60 0 0 -60 0 -60 -60 0 -60 0 0 120 0 120 60
0 60 0 0 60 0 60 -60 0 -60 0 0 60 0 60 60 0 60 0 0 60 0 60 60 0 60 0 0 -60z
m-480 -720 l0 -60 -120 0 -120 0 0 -180 0 -180 -120 0 -120 0 0 60 0 60 60 0
60 0 0 120 0 120 60 0 60 0 0 60 0 60 120 0 120 0 0 -60z m-4320 -720 l0 -180
-180 0 -180 0 0 180 0 180 180 0 180 0 0 -180z m2160 0 l0 -180 -180 0 -180 0
0 180 0 180 180 0 180 0 0 -180z m2160 0 l0 -180 -180 0 -180 0 0 180 0 180
180 0 180 0 0 -180z m-3960 0 l0 -60 -60 0 -60 0 0 -60 0 -60 -60 0 -60 0 0
60 0 60 60 0 60 0 0 60 0 60 60 0 60 0 0 -60z m1680 -900 l0 -120 60 0 60 0 0
120 0 120 60 0 60 0 0 -240 0 -240 -120 0 -120 0 0 120 0 120 -60 0 -60 0 0
-60 0 -60 -60 0 -60 0 0 60 0 60 60 0 60 0 0 120 0 120 60 0 60 0 0 -120z
m360 -540 l0 -60 120 0 120 0 0 -120 0 -120 -60 0 -60 0 0 60 0 60 -120 0
-120 0 0 120 0 120 60 0 60 0 0 -60z m1800 -240 l0 -180 -120 0 -120 0 0 60 0
60 60 0 60 0 0 120 0 120 60 0 60 0 0 -180z m-3480 -300 l0 -120 -60 0 -60 0
0 120 0 120 60 0 60 0 0 -120z m1440 -180 l0 -180 -180 0 -180 0 0 180 0 180
180 0 180 0 0 -180z m2160 0 l0 -180 -180 0 -180 0 0 180 0 180 180 0 180 0 0
-180z m-3000 -180 l0 -120 -60 0 -60 0 0 120 0 120 60 0 60 0 0 -120z m3360 0
l0 -120 -60 0 -60 0 0 120 0 120 60 0 60 0 0 -120z"/>
<path d="M4050 5590 l0 -60 -60 0 -60 0 0 -60 0 -60 -60 0 -60 0 0 -120 0
-120 60 0 60 0 0 -60 0 -60 60 0 60 0 0 60 0 60 60 0 60 0 0 120 0 120 60 0
60 0 0 60 0 60 -60 0 -60 0 0 60 0 60 -60 0 -60 0 0 -60z m120 -120 l0 -60
-60 0 -60 0 0 -60 0 -60 -60 0 -60 0 0 60 0 60 60 0 60 0 0 60 0 60 60 0 60 0
0 -60z"/>
<path d="M2490 5470 l0 -60 -60 0 -60 0 0 -120 0 -120 60 0 60 0 0 -360 0
-360 -120 0 -120 0 0 60 0 60 -180 0 -180 0 0 60 0 60 60 0 60 0 0 120 0 120
-60 0 -60 0 0 -60 0 -60 -60 0 -60 0 0 -60 0 -60 -120 0 -120 0 0 -60 0 -60
180 0 180 0 0 -120 0 -120 60 0 60 0 0 -60 0 -60 -60 0 -60 0 0 -180 0 -180
-60 0 -60 0 0 120 0 120 -60 0 -60 0 0 60 0 60 60 0 60 0 0 60 0 60 -120 0
-120 0 0 60 0 60 -60 0 -60 0 0 60 0 60 -60 0 -60 0 0 -60 0 -60 -60 0 -60 0
0 60 0 60 -60 0 -60 0 0 -60 0 -60 60 0 60 0 0 -60 0 -60 60 0 60 0 0 -120 0
-120 -180 0 -180 0 0 -60 0 -60 120 0 120 0 0 -60 0 -60 60 0 60 0 0 120 0
120 60 0 60 0 0 120 0 120 60 0 60 0 0 -180 0 -180 60 0 60 0 0 -60 0 -60 60
0 60 0 0 -60 0 -60 120 0 120 0 0 180 0 180 60 0 60 0 0 -60 0 -60 60 0 60 0
0 120 0 120 60 0 60 0 0 60 0 60 60 0 60 0 0 -60 0 -60 180 0 180 0 0 60 0 60
-120 0 -120 0 0 120 0 120 60 0 60 0 0 60 0 60 -60 0 -60 0 0 120 0 120 60 0
60 0 0 -60 0 -60 60 0 60 0 0 120 0 120 -120 0 -120 0 0 60 0 60 -60 0 -60 0
0 60 0 60 180 0 180 0 0 120 0 120 -60 0 -60 0 0 -60 0 -60 -60 0 -60 0 0 60
0 60 -60 0 -60 0 0 -60z m-240 -1140 l0 -120 -60 0 -60 0 0 60 0 60 -60 0 -60
0 0 60 0 60 120 0 120 0 0 -120z"/>
<path d="M2970 4930 l0 -120 60 0 60 0 0 -120 0 -120 60 0 60 0 0 120 0 120
120 0 120 0 0 -120 0 -120 60 0 60 0 0 120 0 120 -60 0 -60 0 0 60 0 60 -120
0 -120 0 0 -60 0 -60 -60 0 -60 0 0 120 0 120 -60 0 -60 0 0 -120z"/>
<path d="M810 4870 l0 -60 60 0 60 0 0 -60 0 -60 -60 0 -60 0 0 -60 0 -60 60
0 60 0 0 60 0 60 120 0 120 0 0 60 0 60 -120 0 -120 0 0 60 0 60 -60 0 -60 0
0 -60z"/>
<path d="M1290 4810 l0 -120 60 0 60 0 0 120 0 120 -60 0 -60 0 0 -120z"/>
<path d="M2250 4870 l0 -60 -60 0 -60 0 0 -60 0 -60 60 0 60 0 0 60 0 60 60 0
60 0 0 60 0 60 -60 0 -60 0 0 -60z"/>
<path d="M3090 4390 l0 -60 -60 0 -60 0 0 -120 0 -120 180 0 180 0 0 -60 0
-60 60 0 60 0 0 60 0 60 60 0 60 0 0 60 0 60 -120 0 -120 0 0 120 0 120 -120
0 -120 0 0 -60z"/>
<path d="M4290 4150 l0 -60 60 0 60 0 0 -60 0 -60 -60 0 -60 0 0 -120 0 -120
60 0 60 0 0 120 0 120 60 0 60 0 0 -60 0 -60 60 0 60 0 0 60 0 60 60 0 60 0 0
60 0 60 -180 0 -180 0 0 60 0 60 -60 0 -60 0 0 -60z"/>
<path d="M2370 3970 l0 -120 120 0 120 0 0 60 0 60 60 0 60 0 0 60 0 60 -60 0
-60 0 0 -60 0 -60 -60 0 -60 0 0 60 0 60 -60 0 -60 0 0 -120z"/>
<path d="M3690 3970 l0 -120 60 0 60 0 0 -120 0 -120 60 0 60 0 0 -60 0 -60
60 0 60 0 0 60 0 60 60 0 60 0 0 240 0 240 -60 0 -60 0 0 -240 0 -240 -60 0
-60 0 0 120 0 120 -60 0 -60 0 0 120 0 120 -60 0 -60 0 0 -120z"/>
<path d="M4290 3550 l0 -60 60 0 60 0 0 -60 0 -60 -60 0 -60 0 0 -180 0 -180
-60 0 -60 0 0 -60 0 -60 60 0 60 0 0 60 0 60 60 0 60 0 0 -60 0 -60 60 0 60 0
0 -60 0 -60 -60 0 -60 0 0 -60 0 -60 -180 0 -180 0 0 180 0 180 -60 0 -60 0 0
-180 0 -180 60 0 60 0 0 -120 0 -120 60 0 60 0 0 60 0 60 60 0 60 0 0 -60 0
-60 60 0 60 0 0 120 0 120 60 0 60 0 0 -240 0 -240 -60 0 -60 0 0 60 0 60 -60
0 -60 0 0 -60 0 -60 60 0 60 0 0 -60 0 -60 120 0 120 0 0 240 0 240 60 0 60 0
0 -60 0 -60 120 0 120 0 0 -60 0 -60 60 0 60 0 0 120 0 120 -120 0 -120 0 0
60 0 60 120 0 120 0 0 120 0 120 -60 0 -60 0 0 120 0 120 -60 0 -60 0 0 -60 0
-60 -60 0 -60 0 0 60 0 60 -60 0 -60 0 0 60 0 60 -120 0 -120 0 0 60 0 60 60
0 60 0 0 60 0 60 -60 0 -60 0 0 60 0 60 -60 0 -60 0 0 -60z m360 -540 l0 -120
60 0 60 0 0 -60 0 -60 60 0 60 0 0 60 0 60 60 0 60 0 0 -60 0 -60 -60 0 -60 0
0 -60 0 -60 -60 0 -60 0 0 60 0 60 -60 0 -60 0 0 60 0 60 -60 0 -60 0 0 60 0
60 -60 0 -60 0 0 60 0 60 120 0 120 0 0 -120z"/>
<path d="M2010 3190 l0 -60 -60 0 -60 0 0 -60 0 -60 60 0 60 0 0 60 0 60 60 0
60 0 0 60 0 60 -60 0 -60 0 0 -60z"/>
<path d="M3930 3190 l0 -60 120 0 120 0 0 60 0 60 -120 0 -120 0 0 -60z"/>
<path d="M1050 2830 l0 -60 -60 0 -60 0 0 -60 0 -60 60 0 60 0 0 -60 0 -60
120 0 120 0 0 -120 0 -120 60 0 60 0 0 -60 0 -60 60 0 60 0 0 -120 0 -120 120
0 120 0 0 -60 0 -60 -60 0 -60 0 0 -60 0 -60 60 0 60 0 0 60 0 60 60 0 60 0 0
-60 0 -60 60 0 60 0 0 60 0 60 60 0 60 0 0 60 0 60 -60 0 -60 0 0 60 0 60 60
0 60 0 0 60 0 60 -60 0 -60 0 0 60 0 60 -60 0 -60 0 0 -60 0 -60 60 0 60 0 0
-60 0 -60 -60 0 -60 0 0 -60 0 -60 -60 0 -60 0 0 120 0 120 -120 0 -120 0 0
60 0 60 60 0 60 0 0 120 0 120 -60 0 -60 0 0 60 0 60 -240 0 -240 0 0 60 0 60
60 0 60 0 0 60 0 60 -60 0 -60 0 0 -60z"/>
<path d="M5490 2770 l0 -120 -60 0 -60 0 0 60 0 60 -60 0 -60 0 0 -60 0 -60
60 0 60 0 0 -60 0 -60 -60 0 -60 0 0 -60 0 -60 60 0 60 0 0 60 0 60 60 0 60 0
0 60 0 60 60 0 60 0 0 120 0 120 -60 0 -60 0 0 -120z"/>
<path d="M1890 2590 l0 -60 -60 0 -60 0 0 -60 0 -60 60 0 60 0 0 60 0 60 60 0
60 0 0 60 0 60 -60 0 -60 0 0 -60z"/>
<path d="M2610 2410 l0 -120 60 0 60 0 0 -60 0 -60 -60 0 -60 0 0 -60 0 -60
-60 0 -60 0 0 -60 0 -60 120 0 120 0 0 60 0 60 60 0 60 0 0 -60 0 -60 60 0 60
0 0 60 0 60 -60 0 -60 0 0 120 0 120 -60 0 -60 0 0 120 0 120 -60 0 -60 0 0
-120z"/>
<path d="M2250 1870 l0 -180 60 0 60 0 0 180 0 180 -60 0 -60 0 0 -180z"/>
<path d="M1410 1750 l0 -60 -60 0 -60 0 0 -60 0 -60 60 0 60 0 0 60 0 60 60 0
60 0 0 60 0 60 -60 0 -60 0 0 -60z"/>
<path d="M4170 850 l0 -240 60 0 60 0 0 60 0 60 180 0 180 0 0 60 0 60 -180 0
-180 0 0 120 0 120 -60 0 -60 0 0 -240z"/>
<path d="M3810 790 l0 -60 120 0 120 0 0 60 0 60 -120 0 -120 0 0 -60z"/>
<path d="M3330 6130 l0 -120 60 0 60 0 0 -60 0 -60 60 0 60 0 0 180 0 180
-120 0 -120 0 0 -120z"/>
<path d="M5370 5830 l0 -420 420 0 420 0 0 420 0 420 -420 0 -420 0 0 -420z
m720 0 l0 -300 -300 0 -300 0 0 300 0 300 300 0 300 0 0 -300z"/>
<path d="M5610 5830 l0 -180 180 0 180 0 0 180 0 180 -180 0 -180 0 0 -180z"/>
<path d="M4890 5530 l0 -120 -60 0 -60 0 0 60 0 60 -60 0 -60 0 0 -120 0 -120
60 0 60 0 0 -60 0 -60 -120 0 -120 0 0 -60 0 -60 120 0 120 0 0 60 0 60 60 0
60 0 0 -120 0 -120 60 0 60 0 0 60 0 60 60 0 60 0 0 -60 0 -60 120 0 120 0 0
60 0 60 60 0 60 0 0 60 0 60 300 0 300 0 0 60 0 60 -420 0 -420 0 0 120 0 120
-60 0 -60 0 0 -120 0 -120 60 0 60 0 0 -60 0 -60 -120 0 -120 0 0 60 0 60 -60
0 -60 0 0 60 0 60 60 0 60 0 0 120 0 120 -60 0 -60 0 0 -120z"/>
<path d="M5610 4990 l0 -60 -60 0 -60 0 0 -60 0 -60 60 0 60 0 0 60 0 60 60 0
60 0 0 60 0 60 -60 0 -60 0 0 -60z"/>
<path d="M330 1870 l0 -180 60 0 60 0 0 -120 0 -120 -60 0 -60 0 0 -60 0 -60
180 0 180 0 0 60 0 60 60 0 60 0 0 60 0 60 -120 0 -120 0 0 240 0 240 -120 0
-120 0 0 -180z"/>
<path d="M690 1810 l0 -120 60 0 60 0 0 120 0 120 -60 0 -60 0 0 -120z"/>
<path d="M330 790 l0 -420 420 0 420 0 0 420 0 420 -420 0 -420 0 0 -420z
m720 0 l0 -300 -300 0 -300 0 0 300 0 300 300 0 300 0 0 -300z"/>
<path d="M570 790 l0 -180 180 0 180 0 0 180 0 180 -180 0 -180 0 0 -180z"/>
<path d="M2730 670 l0 -60 -60 0 -60 0 0 -60 0 -60 -60 0 -60 0 0 -60 0 -60
180 0 180 0 0 120 0 120 60 0 60 0 0 -120 0 -120 120 0 120 0 0 120 0 120 -60
0 -60 0 0 60 0 60 -180 0 -180 0 0 -60z"/>
<path d="M3450 550 l0 -60 -60 0 -60 0 0 -60 0 -60 60 0 60 0 0 60 0 60 60 0
60 0 0 60 0 60 -60 0 -60 0 0 -60z"/>
<path d="M5250 550 l0 -60 60 0 60 0 0 -60 0 -60 60 0 60 0 0 120 0 120 -120
0 -120 0 0 -60z"/>
</g>
</svg>
